<mxfile host="app.diagrams.net" modified="2023-10-19T23:46:14.555Z" agent="Mozilla/5.0 (Windows NT 10.0; Win64; x64; rv:109.0) Gecko/20100101 Firefox/118.0" etag="kURenukORC2lj3Tg1Z6U" version="22.0.5" type="device">
  <diagram id="C5RBs43oDa-KdzZeNtuy" name="Page-1">
    <mxGraphModel dx="1234" dy="1133" grid="1" gridSize="10" guides="1" tooltips="1" connect="1" arrows="1" fold="1" page="1" pageScale="1" pageWidth="827" pageHeight="1169" math="0" shadow="0">
      <root>
        <mxCell id="WIyWlLk6GJQsqaUBKTNV-0" />
        <mxCell id="WIyWlLk6GJQsqaUBKTNV-1" parent="WIyWlLk6GJQsqaUBKTNV-0" />
        <mxCell id="weFE4cTFyawRNSKeLTiy-0" value="" style="edgeStyle=orthogonalEdgeStyle;rounded=0;orthogonalLoop=1;jettySize=auto;html=1;" edge="1" parent="WIyWlLk6GJQsqaUBKTNV-1" source="weFE4cTFyawRNSKeLTiy-1" target="weFE4cTFyawRNSKeLTiy-3">
          <mxGeometry relative="1" as="geometry" />
        </mxCell>
        <mxCell id="weFE4cTFyawRNSKeLTiy-1" value="Nutzer startet Applikation im Testmodus" style="ellipse;whiteSpace=wrap;html=1;" vertex="1" parent="WIyWlLk6GJQsqaUBKTNV-1">
          <mxGeometry x="80" y="30" width="120" height="80" as="geometry" />
        </mxCell>
        <mxCell id="weFE4cTFyawRNSKeLTiy-2" value="" style="edgeStyle=orthogonalEdgeStyle;rounded=0;orthogonalLoop=1;jettySize=auto;html=1;" edge="1" parent="WIyWlLk6GJQsqaUBKTNV-1" source="weFE4cTFyawRNSKeLTiy-3" target="weFE4cTFyawRNSKeLTiy-8">
          <mxGeometry relative="1" as="geometry" />
        </mxCell>
        <mxCell id="weFE4cTFyawRNSKeLTiy-3" value="Nutzer übergibt eine Trainings-Datenbank" style="whiteSpace=wrap;html=1;" vertex="1" parent="WIyWlLk6GJQsqaUBKTNV-1">
          <mxGeometry x="80" y="130" width="120" height="60" as="geometry" />
        </mxCell>
        <mxCell id="weFE4cTFyawRNSKeLTiy-4" value="" style="edgeStyle=orthogonalEdgeStyle;rounded=0;orthogonalLoop=1;jettySize=auto;html=1;" edge="1" parent="WIyWlLk6GJQsqaUBKTNV-1" source="weFE4cTFyawRNSKeLTiy-8" target="weFE4cTFyawRNSKeLTiy-13">
          <mxGeometry relative="1" as="geometry" />
        </mxCell>
        <mxCell id="weFE4cTFyawRNSKeLTiy-5" value="JA" style="edgeLabel;html=1;align=center;verticalAlign=middle;resizable=0;points=[];" vertex="1" connectable="0" parent="weFE4cTFyawRNSKeLTiy-4">
          <mxGeometry x="0.5" relative="1" as="geometry">
            <mxPoint as="offset" />
          </mxGeometry>
        </mxCell>
        <mxCell id="weFE4cTFyawRNSKeLTiy-6" style="edgeStyle=orthogonalEdgeStyle;rounded=0;orthogonalLoop=1;jettySize=auto;html=1;exitX=1;exitY=0.5;exitDx=0;exitDy=0;entryX=0;entryY=0.5;entryDx=0;entryDy=0;" edge="1" parent="WIyWlLk6GJQsqaUBKTNV-1" source="weFE4cTFyawRNSKeLTiy-8" target="weFE4cTFyawRNSKeLTiy-35">
          <mxGeometry relative="1" as="geometry" />
        </mxCell>
        <mxCell id="weFE4cTFyawRNSKeLTiy-7" value="Nein" style="edgeLabel;html=1;align=center;verticalAlign=middle;resizable=0;points=[];" vertex="1" connectable="0" parent="weFE4cTFyawRNSKeLTiy-6">
          <mxGeometry x="-0.25" y="3" relative="1" as="geometry">
            <mxPoint as="offset" />
          </mxGeometry>
        </mxCell>
        <mxCell id="weFE4cTFyawRNSKeLTiy-8" value="Sind die benötigten Table in der DB vorhanden?" style="rhombus;whiteSpace=wrap;html=1;" vertex="1" parent="WIyWlLk6GJQsqaUBKTNV-1">
          <mxGeometry x="80" y="210" width="120" height="80" as="geometry" />
        </mxCell>
        <mxCell id="weFE4cTFyawRNSKeLTiy-9" value="" style="edgeStyle=orthogonalEdgeStyle;rounded=0;orthogonalLoop=1;jettySize=auto;html=1;" edge="1" parent="WIyWlLk6GJQsqaUBKTNV-1" source="weFE4cTFyawRNSKeLTiy-13" target="weFE4cTFyawRNSKeLTiy-15">
          <mxGeometry relative="1" as="geometry" />
        </mxCell>
        <mxCell id="weFE4cTFyawRNSKeLTiy-10" value="JA" style="edgeLabel;html=1;align=center;verticalAlign=middle;resizable=0;points=[];" vertex="1" connectable="0" parent="weFE4cTFyawRNSKeLTiy-9">
          <mxGeometry x="0.6" y="-1" relative="1" as="geometry">
            <mxPoint as="offset" />
          </mxGeometry>
        </mxCell>
        <mxCell id="weFE4cTFyawRNSKeLTiy-11" style="edgeStyle=orthogonalEdgeStyle;rounded=0;orthogonalLoop=1;jettySize=auto;html=1;entryX=0;entryY=0.5;entryDx=0;entryDy=0;" edge="1" parent="WIyWlLk6GJQsqaUBKTNV-1" source="weFE4cTFyawRNSKeLTiy-13" target="weFE4cTFyawRNSKeLTiy-36">
          <mxGeometry relative="1" as="geometry" />
        </mxCell>
        <mxCell id="weFE4cTFyawRNSKeLTiy-12" value="Nein" style="edgeLabel;html=1;align=center;verticalAlign=middle;resizable=0;points=[];" vertex="1" connectable="0" parent="weFE4cTFyawRNSKeLTiy-11">
          <mxGeometry x="-0.6" y="-1" relative="1" as="geometry">
            <mxPoint x="2" y="-1" as="offset" />
          </mxGeometry>
        </mxCell>
        <mxCell id="weFE4cTFyawRNSKeLTiy-13" value="Sind Daten in den Table vorhanden?" style="rhombus;whiteSpace=wrap;html=1;" vertex="1" parent="WIyWlLk6GJQsqaUBKTNV-1">
          <mxGeometry x="80" y="310" width="120" height="80" as="geometry" />
        </mxCell>
        <mxCell id="weFE4cTFyawRNSKeLTiy-14" value="" style="edgeStyle=orthogonalEdgeStyle;rounded=0;orthogonalLoop=1;jettySize=auto;html=1;" edge="1" parent="WIyWlLk6GJQsqaUBKTNV-1" source="weFE4cTFyawRNSKeLTiy-15" target="weFE4cTFyawRNSKeLTiy-17">
          <mxGeometry relative="1" as="geometry" />
        </mxCell>
        <mxCell id="weFE4cTFyawRNSKeLTiy-15" value="einzelnen Datensatz auslesen" style="whiteSpace=wrap;html=1;" vertex="1" parent="WIyWlLk6GJQsqaUBKTNV-1">
          <mxGeometry x="80" y="410" width="120" height="60" as="geometry" />
        </mxCell>
        <mxCell id="weFE4cTFyawRNSKeLTiy-16" value="" style="edgeStyle=orthogonalEdgeStyle;rounded=0;orthogonalLoop=1;jettySize=auto;html=1;" edge="1" parent="WIyWlLk6GJQsqaUBKTNV-1" source="weFE4cTFyawRNSKeLTiy-17" target="weFE4cTFyawRNSKeLTiy-19">
          <mxGeometry relative="1" as="geometry" />
        </mxCell>
        <mxCell id="weFE4cTFyawRNSKeLTiy-17" value="CNN-Magic (siehe eigenes Ablaufsdiagramm)" style="whiteSpace=wrap;html=1;" vertex="1" parent="WIyWlLk6GJQsqaUBKTNV-1">
          <mxGeometry x="80" y="490" width="120" height="60" as="geometry" />
        </mxCell>
        <mxCell id="weFE4cTFyawRNSKeLTiy-18" value="" style="edgeStyle=orthogonalEdgeStyle;rounded=0;orthogonalLoop=1;jettySize=auto;html=1;" edge="1" parent="WIyWlLk6GJQsqaUBKTNV-1" source="weFE4cTFyawRNSKeLTiy-19" target="weFE4cTFyawRNSKeLTiy-21">
          <mxGeometry relative="1" as="geometry" />
        </mxCell>
        <mxCell id="weFE4cTFyawRNSKeLTiy-19" value="10 Outputs al Dezimalzahl erhalten" style="whiteSpace=wrap;html=1;" vertex="1" parent="WIyWlLk6GJQsqaUBKTNV-1">
          <mxGeometry x="80" y="570" width="120" height="60" as="geometry" />
        </mxCell>
        <mxCell id="weFE4cTFyawRNSKeLTiy-38" value="" style="edgeStyle=orthogonalEdgeStyle;rounded=0;orthogonalLoop=1;jettySize=auto;html=1;" edge="1" parent="WIyWlLk6GJQsqaUBKTNV-1" source="weFE4cTFyawRNSKeLTiy-21" target="weFE4cTFyawRNSKeLTiy-37">
          <mxGeometry relative="1" as="geometry" />
        </mxCell>
        <mxCell id="weFE4cTFyawRNSKeLTiy-21" value="höchsten Output ermittel und dessen korrespondierende Ziffer" style="whiteSpace=wrap;html=1;" vertex="1" parent="WIyWlLk6GJQsqaUBKTNV-1">
          <mxGeometry x="80" y="650" width="120" height="60" as="geometry" />
        </mxCell>
        <mxCell id="weFE4cTFyawRNSKeLTiy-27" style="edgeStyle=orthogonalEdgeStyle;rounded=0;orthogonalLoop=1;jettySize=auto;html=1;entryX=0;entryY=0.5;entryDx=0;entryDy=0;exitX=0;exitY=0.5;exitDx=0;exitDy=0;" edge="1" parent="WIyWlLk6GJQsqaUBKTNV-1" source="weFE4cTFyawRNSKeLTiy-31" target="weFE4cTFyawRNSKeLTiy-15">
          <mxGeometry relative="1" as="geometry">
            <Array as="points">
              <mxPoint x="40" y="940" />
              <mxPoint x="40" y="440" />
            </Array>
          </mxGeometry>
        </mxCell>
        <mxCell id="weFE4cTFyawRNSKeLTiy-28" value="JA" style="edgeLabel;html=1;align=center;verticalAlign=middle;resizable=0;points=[];" vertex="1" connectable="0" parent="weFE4cTFyawRNSKeLTiy-27">
          <mxGeometry x="-0.3529" y="-1" relative="1" as="geometry">
            <mxPoint as="offset" />
          </mxGeometry>
        </mxCell>
        <mxCell id="weFE4cTFyawRNSKeLTiy-29" value="" style="edgeStyle=orthogonalEdgeStyle;rounded=0;orthogonalLoop=1;jettySize=auto;html=1;" edge="1" parent="WIyWlLk6GJQsqaUBKTNV-1" source="weFE4cTFyawRNSKeLTiy-31" target="weFE4cTFyawRNSKeLTiy-32">
          <mxGeometry relative="1" as="geometry" />
        </mxCell>
        <mxCell id="weFE4cTFyawRNSKeLTiy-30" value="Nein" style="edgeLabel;html=1;align=center;verticalAlign=middle;resizable=0;points=[];" vertex="1" connectable="0" parent="weFE4cTFyawRNSKeLTiy-29">
          <mxGeometry x="0.6667" y="-1" relative="1" as="geometry">
            <mxPoint as="offset" />
          </mxGeometry>
        </mxCell>
        <mxCell id="weFE4cTFyawRNSKeLTiy-31" value="Sind noch Daten vorhanden welche noch nicht behandelt wurden?" style="rhombus;whiteSpace=wrap;html=1;" vertex="1" parent="WIyWlLk6GJQsqaUBKTNV-1">
          <mxGeometry x="80" y="900" width="120" height="80" as="geometry" />
        </mxCell>
        <mxCell id="weFE4cTFyawRNSKeLTiy-32" value="Training wird beendet" style="ellipse;whiteSpace=wrap;html=1;" vertex="1" parent="WIyWlLk6GJQsqaUBKTNV-1">
          <mxGeometry x="80" y="1010" width="120" height="80" as="geometry" />
        </mxCell>
        <mxCell id="weFE4cTFyawRNSKeLTiy-35" value="Error, dass die DB nicht korrekt gebaut ist" style="ellipse;whiteSpace=wrap;html=1;" vertex="1" parent="WIyWlLk6GJQsqaUBKTNV-1">
          <mxGeometry x="240" y="210" width="120" height="80" as="geometry" />
        </mxCell>
        <mxCell id="weFE4cTFyawRNSKeLTiy-36" value="Error, dass die DB keine Daten beinhaltet" style="ellipse;whiteSpace=wrap;html=1;" vertex="1" parent="WIyWlLk6GJQsqaUBKTNV-1">
          <mxGeometry x="240" y="310" width="120" height="80" as="geometry" />
        </mxCell>
        <mxCell id="weFE4cTFyawRNSKeLTiy-42" value="" style="edgeStyle=orthogonalEdgeStyle;rounded=0;orthogonalLoop=1;jettySize=auto;html=1;" edge="1" parent="WIyWlLk6GJQsqaUBKTNV-1" source="weFE4cTFyawRNSKeLTiy-37" target="weFE4cTFyawRNSKeLTiy-41">
          <mxGeometry relative="1" as="geometry" />
        </mxCell>
        <mxCell id="weFE4cTFyawRNSKeLTiy-37" value="Aktualisierung des aktuellen Korrektheitsstand (x falsch und y korrekt) " style="whiteSpace=wrap;html=1;" vertex="1" parent="WIyWlLk6GJQsqaUBKTNV-1">
          <mxGeometry x="80" y="730" width="120" height="60" as="geometry" />
        </mxCell>
        <mxCell id="weFE4cTFyawRNSKeLTiy-43" value="" style="edgeStyle=orthogonalEdgeStyle;rounded=0;orthogonalLoop=1;jettySize=auto;html=1;" edge="1" parent="WIyWlLk6GJQsqaUBKTNV-1" source="weFE4cTFyawRNSKeLTiy-41" target="weFE4cTFyawRNSKeLTiy-31">
          <mxGeometry relative="1" as="geometry" />
        </mxCell>
        <mxCell id="weFE4cTFyawRNSKeLTiy-41" value="Korrektheitsstand + Fortschritt der Tests (x von y Tests erledigt) an Nutzer ausgeben" style="whiteSpace=wrap;html=1;" vertex="1" parent="WIyWlLk6GJQsqaUBKTNV-1">
          <mxGeometry x="80" y="810" width="120" height="60" as="geometry" />
        </mxCell>
      </root>
    </mxGraphModel>
  </diagram>
</mxfile>
